# xmcd
#
# Track frame offsets: 
#        150
#        6917
#        26500
#        37982
#        56850
#        75877
#        95032
#        114987
#        129870
#        136997
#        155545
#        173312
#        183132
#        202052
#        219250
#        238957
#        256375
#        279102
#
# Disc length: 3931 seconds
#
# Revision: 0
# Processed by: cddbd v1.5.2PL0 Copyright (c) Steve Scherf et al.
# Submitted via: ExactAudioCopy v0.95b4
#
DISCID=e40f5912
DTITLE=Pras - Ghetto Supastar
DYEAR=1998
DGENRE=Rap
TTITLE0=Hallelujah
TTITLE1=Ghetto Supastar (That is What You Are) Feat. Mya and Ol' Dirty B
TTITLE1=asterd
TTITLE2=1st Phone Interlude
TTITLE3=What'cha Wanna Do
TTITLE4=Blue Angels
TTITLE5=Can't Stop The Shining (Rip Rock Pt. 2)
TTITLE6=Get Your Groove On
TTITLE7=Frowsey (Pt. 2)
TTITLE8=Dirty Cash
TTITLE9=For The Love Of This
TTITLE10=Wha' What Wha' What
TTITLE11=2nd Phone Interlude
TTITLE12=Lowriders
TTITLE13=Yeah 'eh Yeah 'eh
TTITLE14=Murder Dem
TTITLE15=3rd Phone Interlude
TTITLE16=Amazing Grace
TTITLE17=Final Interlude
EXTD=
EXTT0=
EXTT1=
EXTT2=
EXTT3=
EXTT4=
EXTT5=
EXTT6=
EXTT7=
EXTT8=
EXTT9=
EXTT10=
EXTT11=
EXTT12=
EXTT13=
EXTT14=
EXTT15=
EXTT16=
EXTT17=
PLAYORDER=
